# xmcd
#
# Track frame offsets: 
#        150
#        14782
#        40118
#        61178
#        79411
#        97450
#        115323
#        126694
#        146098
#        166067
#        190436
#        197593
#        219022
#
# Disc length: 3161 seconds
#
# Revision: 0
# Processed by: cddbd v1.5.2PL0 Copyright (c) Steve Scherf et al.
# Submitted via: ExactAudioCopy v1.1
#
DISCID=c50c570d
DTITLE=Habib Koité and Eric Bibb - Brothers in Bamako
DYEAR=2012
DGENRE=Blues
TTITLE0=On My Way to Bamako
TTITLE1=L.A.
TTITLE2=Touma Ni Kelen - Needed Time
TTITLE3=Tombouctou
TTITLE4=We Don't Care
TTITLE5=Send Us Brighter Days
TTITLE6=Nani Le
TTITLE7=Khafolé
TTITLE8=With My Maker I am One
TTITLE9=Foro Bana
TTITLE10=Mami Wata
TTITLE11=Blowin' in the Wind
TTITLE12=Goin' Down the Road Feelin' Bad
EXTD=Info URL: https://www.discogs.com/Habib-Koit%C3%A9-Eric-Bibb-Brot
EXTD=hers-In-Bamako/release/3872056\nBarcode: 3149028027020\nRelease d
EXTD=ate: 2012\nRelease country: ?\nRelease label: DixieFrog\nRelease 
EXTD=catalog#: DFGCD 8730\n
EXTT0=
EXTT1=
EXTT2=
EXTT3=
EXTT4=
EXTT5=
EXTT6=
EXTT7=
EXTT8=
EXTT9=
EXTT10=
EXTT11=
EXTT12=
PLAYORDER=
